#!OML:ASF E:\id_vita\Project 1\Capture day 1\Session 1\Female.ASF
:FULLY-SPECIFIED
:DEGREES
888
root 40.3463 16.661 0.757477 1293.69 91.452 1285.04
lowerback -15.8551 -0.00861261 -3.85847
upperback -4.08431 0.741693 1.23201
thorax 4.47196 0.425592 3.64149
lowerneck 7.57339 0.89066 -3.58174
upperneck 0.772784 0.99897 4.06438
head -1.09483 0.446351 1.86602
rclavicle 7.50412e-015 1.78906e-015
rhumerus -35.3467 -28.1878 -74.4446
rradius 15.6714
rwrist 31.3164
rhand -12.9318 9.60909
rfingers 7.12502
rthumb 13.159 -19.9557
lclavicle 7.50412e-015 1.78906e-015
lhumerus -29.1509 26.9063 82.6147
lradius 17.0795
lwrist -41.8603
lhand -5.26757 23.8775
lfingers 7.12502
lthumb 20.5363 52.8113
rfemur -7.65827 1.23036 20.1681
rtibia 29.0935
rfoot -16.56 2.13294
rtoes -18.1097
lfemur -17.8497 -9.20868 -22.2002
ltibia 27.6904
lfoot -18.5805 3.77238
ltoes 5.68666
889
root 40.3801 16.6484 0.744501 1291.33 91.5067 1282.76
lowerback -16.0134 -0.0158761 -3.94631
upperback -3.9197 0.743983 1.29143
thorax 4.72944 0.413647 3.76065
lowerneck 7.39393 1.02013 -3.7658
upperneck 0.723878 1.16771 4.4302
head -1.09349 0.525445 2.0133
rclavicle -1.04362e-014 -1.33186e-014
rhumerus -35.4528 -28.1978 -74.2207
rradius 15.6781
rwrist 31.4026
rhand -12.8907 9.54926
rfingers 7.12502
rthumb 13.1986 -20.0129
lclavicle -1.04362e-014 -1.33186e-014
lhumerus -28.8194 27.1073 82.7602
lradius 16.9517
lwrist -41.9641
lhand -5.31739 23.8457
lfingers 7.12502
lthumb 20.4884 52.7847
rfemur -7.66467 1.28571 20.2419
rtibia 29.5004
rfoot -16.5802 1.71543
rtoes -18.812
lfemur -17.5644 -8.90159 -22.2043
ltibia 27.6329
lfoot -18.9013 3.4649
ltoes 5.6949
890
root 40.3975 16.6423 0.725127 1294.17 91.5234 1285.63
lowerback -15.8393 -0.0447567 -4.0197
upperback -3.92801 0.709426 1.28921
thorax 4.62887 0.398023 3.78969
lowerneck 7.25766 1.0448 -3.59905
upperneck 0.782233 1.21451 4.32231
head -1.04955 0.552149 1.94571
rclavicle 1.88845e-014 7.55382e-015
rhumerus -35.8592 -28.8559 -73.5297
rradius 15.5247
rwrist 32.1718
rhand -13.0704 9.68487
rfingers 7.12502
rthumb 13.0253 -19.8885
lclavicle 1.88845e-014 7.55382e-015
lhumerus -28.7079 27.2151 82.7869
lradius 16.8263
lwrist -42.0678
lhand -5.54159 23.7705
lfingers 7.12502
lthumb 20.273 52.7325
rfemur -7.7787 0.823865 20.0729
rtibia 29.9119
rfoot -16.7703 1.72265
rtoes -19.5369
lfemur -17.4168 -8.74581 -22.3914
ltibia 27.5701
lfoot -19.2703 3.18736
ltoes 5.94946
891
root 40.4123 16.6412 0.707057 1292.64 91.4732 1283.97
lowerback -15.8335 -0.0443047 -4.03838
upperback -3.9641 0.710274 1.36796
thorax 4.58592 0.400957 3.88379
lowerneck 7.16465 1.03083 -3.56781
upperneck 0.792276 1.19877 4.25747
head -1.02821 0.545955 1.91916
rclavicle -4.69629e-015 -6.55989e-015
rhumerus -36.2211 -29.9121 -72.524
rradius 15.1005
rwrist 33.1978
rhand -13.3746 9.95411
rfingers 7.12502
rthumb 12.7321 -19.6377
lclavicle -4.69629e-015 -6.55989e-015
lhumerus -28.6734 27.1284 82.9882
lradius 16.9085
lwrist -41.9983
lhand -5.5689 23.737
lfingers 7.12502
lthumb 20.2467 52.7017
rfemur -8.10347 0.486989 20.103
rtibia 30.2709
rfoot -16.7764 1.6208
rtoes -20.074
lfemur -17.5153 -8.58721 -22.3733
ltibia 27.548
lfoot -19.6725 2.98312
ltoes 6.36556
892
root 40.4216 16.6371 0.696704 1297.48 91.2746 1288.81
lowerback -15.7177 -0.0494545 -4.11499
upperback -3.8985 0.709598 1.3318
thorax 4.59249 0.396788 3.8873
lowerneck 7.45197 0.955787 -3.82766
upperneck 0.295125 1.08355 4.54597
head -1.24005 0.477422 2.06819
rclavicle 1.2424e-014 -1.98785e-015
rhumerus -36.4505 -30.97 -71.7651
rradius 14.6711
rwrist 34.0944
rhand -13.5479 10.1425
rfingers 7.12502
rthumb 12.565 -19.4597
lclavicle 1.2424e-014 -1.98785e-015
lhumerus -28.437 26.9779 83.1581
lradius 16.9423
lwrist -41.9843
lhand -5.48207 23.7975
lfingers 7.12502
lthumb 20.3302 52.7534
rfemur -8.24085 0.161461 20.1378
rtibia 30.5426
rfoot -16.6807 1.34989
rtoes -20.0777
lfemur -17.6018 -8.23415 -22.4073
ltibia 27.6393
lfoot -20.0084 2.36313
ltoes 7.05148
893
root 40.4691 16.6318 0.672144 1301.99 91.4725 1293.17
lowerback -16.2984 0.0299668 -4.12306
upperback -3.77672 0.84855 1.1929
thorax 5.02417 0.451662 3.78523
lowerneck 7.20911 0.997457 -3.74929
upperneck 0.471019 1.1546 4.76603
head -1.14633 0.513097 2.12237
rclavicle -1.83876e-015 -3.57812e-015
rhumerus -36.7609 -31.5973 -71.2052
rradius 14.5147
rwrist 34.7947
rhand -13.3821 10.012
rfingers 7.12502
rthumb 12.7249 -19.5803
lclavicle -1.83876e-015 -3.57812e-015
lhumerus -28.2569 27.2019 83.1277
lradius 16.7678
lwrist -42.2481
lhand -5.49568 23.9277
lfingers 7.12502
lthumb 20.3171 52.885
rfemur -8.32748 -0.199529 19.8057
rtibia 30.7912
rfoot -16.862 1.49916
rtoes -19.0662
lfemur -17.5838 -7.94623 -22.7646
ltibia 27.7491
lfoot -20.1024 2.21133
ltoes 7.57166
894
root 40.4901 16.6287 0.64961 1295.52 91.3307 1286.73
lowerback -15.8742 0.0522748 -3.85172
upperback -4.01105 0.819225 1.23524
thorax 4.55303 0.459241 3.65732
lowerneck 7.49861 1.04223 -3.55463
upperneck 0.540516 1.22225 4.65954
head -1.17385 0.54728 2.04989
rclavicle 2.48481e-017 -6.55989e-015
rhumerus -37.5878 -31.7673 -70.5342
rradius 14.5727
rwrist 35.2173
rhand -13.2142 9.87887
rfingers 7.12502
rthumb 12.8867 -19.7033
lclavicle 2.48481e-017 -6.55989e-015
lhumerus -28.6393 27.0624 82.998
lradius 16.7834
lwrist -41.9667
lhand -5.37609 24.1227
lfingers 7.12502
lthumb 20.432 53.0677
rfemur -8.30014 -0.683064 19.9042
rtibia 31.052
rfoot -16.9426 1.72094
rtoes -18.1424
lfemur -17.4377 -7.34481 -22.752
ltibia 27.8804
lfoot -20.2478 1.78738
ltoes 7.66419
895
root 40.5159 16.6254 0.638137 1297.47 91.4757 1288.51
lowerback -15.9288 0.0180612 -4.05211
upperback -4.21461 0.819067 1.19879
thorax 4.36378 0.471069 3.73114
lowerneck 7.73743 0.9268 -3.54926
upperneck 0.582918 1.06443 4.66914
head -1.19517 0.46701 2.0579
rclavicle 1.16786e-014 1.19271e-014
rhumerus -38.3888 -32.088 -69.9053
rradius 14.6507
rwrist 35.6397
rhand -13.2335 9.88492
rfingers 7.12502
rthumb 12.8681 -19.6984
lclavicle 1.16786e-014 1.19271e-014
lhumerus -28.9952 26.8243 82.8463
lradius 16.8633
lwrist -41.7019
lhand -5.24538 24.1719
lfingers 7.12502
lthumb 20.5576 53.1034
rfemur -8.57791 -0.72274 19.7764
rtibia 31.3518
rfoot -16.9334 1.43803
rtoes -18.4435
lfemur -17.5494 -6.98908 -22.9262
ltibia 27.9561
lfoot -20.5582 1.57567
ltoes 7.66897
896
root 40.5099 16.6171 0.615116 1298.49 91.3201 1289.59
lowerback -15.4207 0.0337603 -3.8865
upperback -4.32986 0.794879 1.16118
thorax 3.97405 0.471854 3.58014
lowerneck 7.75774 0.887894 -3.63343
upperneck 0.670728 1.00827 4.85616
head -1.17151 0.436754 2.13634
rclavicle -5.98839e-015 -5.36719e-015
rhumerus -38.8464 -32.4936 -69.3791
rradius 14.5037
rwrist 36.0092
rhand -13.4763 10.0353
rfingers 7.12502
rthumb 12.634 -19.5626
lclavicle -5.98839e-015 -5.36719e-015
lhumerus -29.1554 26.9763 82.6585
lradius 16.7777
lwrist -42.0444
lhand -5.25049 24.1231
lfingers 7.12502
lthumb 20.5527 53.0551
rfemur -8.705 -1.16033 19.8006
rtibia 31.6841
rfoot -17.007 1.177
rtoes -19.1974
lfemur -17.4828 -6.81213 -22.937
ltibia 28.0181
lfoot -20.8886 1.2613
ltoes 7.79634
897
root 40.5455 16.6032 0.594563 1299.89 91.5121 1290.87
lowerback -16.005 0.121228 -3.85919
upperback -4.12139 0.932697 1.03732
thorax 4.49977 0.521365 3.47438
lowerneck 7.38038 1.01733 -3.8292
upperneck 0.811135 1.17904 5.29462
head -1.07688 0.520097 2.30967
rclavicle -2.48481e-017 1.59028e-015
rhumerus -38.9722 -33.4591 -68.766
rradius 14.0778
rwrist 36.771
rhand -13.7171 10.1926
rfingers 7.12502
rthumb 12.4019 -19.4195
lclavicle -2.48481e-017 1.59028e-015
lhumerus -28.9005 27.0042 82.6781
lradius 16.6977
lwrist -42.2971
lhand -5.1984 24.1345
lfingers 7.12502
lthumb 20.6028 53.0611
rfemur -8.87221 -1.39376 19.5679
rtibia 32.0264
rfoot -17.2038 0.943528
rtoes -19.8555
lfemur -17.2879 -6.73421 -23.1781
ltibia 28.0188
lfoot -21.3154 1.46873
ltoes 7.55635
898
root 40.5643 16.5984 0.581261 1304.05 91.5904 1294.83
lowerback -16.1927 0.0332141 -4.13923
upperback -4.12418 0.868651 1.10086
thorax 4.59728 0.486464 3.69316
lowerneck 7.2879 0.825255 -3.81464
upperneck 0.727679 0.92326 5.13713
head -1.07268 0.394257 2.26333
rclavicle -6.48535e-015 -3.18055e-015
rhumerus -39.3302 -34.3734 -67.7885
rradius 13.7755
rwrist 37.8588
rhand -13.6601 10.1604
rfingers 7.12502
rthumb 12.4568 -19.4484
lclavicle -6.48535e-015 -3.18055e-015
lhumerus -28.9997 27.1706 82.7138
lradius 16.828
lwrist -42.3962
lhand -5.13015 24.0053
lfingers 7.12502
lthumb 20.6684 52.9248
rfemur -9.22659 -1.64178 19.3995
rtibia 32.4008
rfoot -17.2158 0.769107
rtoes -19.826
lfemur -17.4536 -6.57212 -23.3563
ltibia 27.9684
lfoot -21.5606 1.19377
ltoes 7.62141
